<mxfile host="Electron" modified="2024-06-06T01:50:27.923Z" agent="Mozilla/5.0 (Windows NT 10.0; Win64; x64) AppleWebKit/537.36 (KHTML, like Gecko) draw.io/24.2.5 Chrome/120.0.6099.109 Electron/28.1.0 Safari/537.36" etag="lWbuAh7tU4Tfmc8cSG-5" version="24.2.5" type="device">
  <diagram name="페이지-1" id="3jRfcNSUJQn5dtY_I1Rt">
    <mxGraphModel dx="1194" dy="657" grid="1" gridSize="10" guides="1" tooltips="1" connect="1" arrows="1" fold="1" page="1" pageScale="1" pageWidth="827" pageHeight="1169" math="0" shadow="0">
      <root>
        <mxCell id="0" />
        <mxCell id="1" parent="0" />
        <mxCell id="7ZEUITmQXKh6CgGHwncE-3" value="" style="edgeStyle=orthogonalEdgeStyle;rounded=0;orthogonalLoop=1;jettySize=auto;html=1;" edge="1" parent="1" source="7ZEUITmQXKh6CgGHwncE-1" target="7ZEUITmQXKh6CgGHwncE-2">
          <mxGeometry relative="1" as="geometry" />
        </mxCell>
        <mxCell id="7ZEUITmQXKh6CgGHwncE-1" value="start" style="rounded=1;whiteSpace=wrap;html=1;" vertex="1" parent="1">
          <mxGeometry x="360" y="130" width="120" height="60" as="geometry" />
        </mxCell>
        <mxCell id="7ZEUITmQXKh6CgGHwncE-5" value="" style="edgeStyle=orthogonalEdgeStyle;rounded=0;orthogonalLoop=1;jettySize=auto;html=1;" edge="1" parent="1" source="7ZEUITmQXKh6CgGHwncE-2" target="7ZEUITmQXKh6CgGHwncE-4">
          <mxGeometry relative="1" as="geometry" />
        </mxCell>
        <mxCell id="7ZEUITmQXKh6CgGHwncE-2" value="find &quot;\n\r&quot; in string" style="rounded=0;whiteSpace=wrap;html=1;" vertex="1" parent="1">
          <mxGeometry x="360" y="230" width="120" height="60" as="geometry" />
        </mxCell>
        <mxCell id="7ZEUITmQXKh6CgGHwncE-9" style="edgeStyle=orthogonalEdgeStyle;rounded=0;orthogonalLoop=1;jettySize=auto;html=1;entryX=0.5;entryY=0;entryDx=0;entryDy=0;" edge="1" parent="1" source="7ZEUITmQXKh6CgGHwncE-4" target="7ZEUITmQXKh6CgGHwncE-7">
          <mxGeometry relative="1" as="geometry" />
        </mxCell>
        <mxCell id="7ZEUITmQXKh6CgGHwncE-4" value="replace it with &quot;\n&quot;" style="rounded=0;whiteSpace=wrap;html=1;" vertex="1" parent="1">
          <mxGeometry x="360" y="330" width="120" height="60" as="geometry" />
        </mxCell>
        <mxCell id="7ZEUITmQXKh6CgGHwncE-6" value="" style="edgeStyle=orthogonalEdgeStyle;rounded=0;orthogonalLoop=1;jettySize=auto;html=1;" edge="1" parent="1" source="7ZEUITmQXKh6CgGHwncE-7" target="7ZEUITmQXKh6CgGHwncE-8">
          <mxGeometry relative="1" as="geometry" />
        </mxCell>
        <mxCell id="7ZEUITmQXKh6CgGHwncE-7" value="find &quot;\r\n&quot; in string" style="rounded=0;whiteSpace=wrap;html=1;" vertex="1" parent="1">
          <mxGeometry x="360" y="430" width="120" height="60" as="geometry" />
        </mxCell>
        <mxCell id="7ZEUITmQXKh6CgGHwncE-11" value="" style="edgeStyle=orthogonalEdgeStyle;rounded=0;orthogonalLoop=1;jettySize=auto;html=1;" edge="1" parent="1" source="7ZEUITmQXKh6CgGHwncE-8" target="7ZEUITmQXKh6CgGHwncE-10">
          <mxGeometry relative="1" as="geometry" />
        </mxCell>
        <mxCell id="7ZEUITmQXKh6CgGHwncE-8" value="replace it with &quot;\n&quot;" style="rounded=0;whiteSpace=wrap;html=1;" vertex="1" parent="1">
          <mxGeometry x="360" y="530" width="120" height="60" as="geometry" />
        </mxCell>
        <mxCell id="7ZEUITmQXKh6CgGHwncE-10" value="end" style="rounded=1;whiteSpace=wrap;html=1;" vertex="1" parent="1">
          <mxGeometry x="360" y="630" width="120" height="60" as="geometry" />
        </mxCell>
      </root>
    </mxGraphModel>
  </diagram>
</mxfile>
